<svg xmlns="http://www.w3.org/2000/svg" viewBox="0 0 220 220"><rect width="220" height="220" fill="white"/><g fill="#111827"><rect x="18" y="18" width="58" height="58"/><rect x="31" y="31" width="32" height="32" fill="white"/><rect x="144" y="18" width="58" height="58"/><rect x="157" y="31" width="32" height="32" fill="white"/><rect x="18" y="144" width="58" height="58"/><rect x="31" y="157" width="32" height="32" fill="white"/><rect x="94" y="22" width="14" height="14"/><rect x="116" y="22" width="14" height="14"/><rect x="92" y="52" width="40" height="12"/><rect x="91" y="92" width="16" height="16"/><rect x="119" y="92" width="16" height="16"/><rect x="147" y="92" width="16" height="16"/><rect x="175" y="94" width="16" height="42"/><rect x="92" y="122" width="72" height="14"/><rect x="92" y="150" width="16" height="44"/><rect x="120" y="150" width="16" height="16"/><rect x="148" y="148" width="44" height="16"/><rect x="148" y="178" width="16" height="16"/><rect x="178" y="178" width="16" height="16"/></g><text x="110" y="213" text-anchor="middle" font-family="Arial" font-size="10" fill="#6b7280">QR placeholder</text></svg>
